<?xml version="1.0" encoding="UTF-8" standalone="no"?>
<!-- Created with Inkscape (http://www.inkscape.org/) -->

<svg
   width="210mm"
   height="297mm"
   viewBox="0 0 210 297"
   version="1.1"
   id="svg1286"
   inkscape:export-filename="mushroom2.png"
   inkscape:export-xdpi="96"
   inkscape:export-ydpi="96"
   inkscape:version="1.2.2 (732a01da63, 2022-12-09)"
   sodipodi:docname="mushroom2.svg"
   xmlns:inkscape="http://www.inkscape.org/namespaces/inkscape"
   xmlns:sodipodi="http://sodipodi.sourceforge.net/DTD/sodipodi-0.dtd"
   xmlns="http://www.w3.org/2000/svg"
   xmlns:svg="http://www.w3.org/2000/svg">
  <sodipodi:namedview
     id="namedview1288"
     pagecolor="#ffffff"
     bordercolor="#000000"
     borderopacity="0.25"
     inkscape:showpageshadow="2"
     inkscape:pageopacity="0.0"
     inkscape:pagecheckerboard="0"
     inkscape:deskcolor="#d1d1d1"
     inkscape:document-units="mm"
     showgrid="false"
     inkscape:zoom="0.914906"
     inkscape:cx="396.76207"
     inkscape:cy="557.98082"
     inkscape:window-width="3840"
     inkscape:window-height="2054"
     inkscape:window-x="-11"
     inkscape:window-y="-11"
     inkscape:window-maximized="1"
     inkscape:current-layer="layer4" />
  <defs
     id="defs1283" />
  <g
     inkscape:label="Layer 1"
     inkscape:groupmode="layer"
     id="layer1">
    <path
       style="fill:#66ff00;stroke-width:0.264583"
       d="m 114.51996,251.88607 -10.7001,-10.98929 -8.964945,-10.4109 c 0,0 -4.048683,-8.09737 -4.048683,-17.06232 0,-8.96494 1.445958,-14.1704 6.073026,-16.77312 4.627072,-2.60273 -0.289192,-0.57839 11.567672,-8.96495 11.85687,-8.38656 11.85687,-3.4703 19.37585,-15.90555 7.51899,-12.43525 10.98929,-9.83252 8.09737,-19.95424 -2.89191,-10.12171 -8.67575,-17.6407 -8.67575,-17.6407 l -3.75949,-12.43525 c 0,0 -28.629995,1.44596 -32.389489,0.86758 -3.759493,-0.57838 -24.870494,1.44596 -24.870494,1.44596 0,0 3.759494,-10.7001 6.940603,-14.45959 3.181109,-3.75949 10.700096,-16.194743 15.616359,-16.194743 4.91626,0 21.400191,-8.964946 24.292111,-9.832523 2.89192,-0.867574 17.06232,-0.867574 22.55696,-0.867574 5.49465,0 37.01656,17.6407 38.75171,19.95423 1.73515,2.31354 3.4703,3.7595 3.4703,8.67576 0,4.91626 2.89192,7.80818 -0.28919,10.4109 -3.18111,2.60273 -33.83545,0.57839 -33.83545,0.57839 l -1.15676,12.14605 7.51898,10.7001 c 0,0 -1.73515,11.85687 -1.73515,14.1704 0,2.31354 0.57839,17.92989 -3.4703,20.82181 -4.04868,2.89192 -16.77312,14.1704 -21.68939,16.19474 -4.91626,2.02435 -2.02434,-5.49464 -9.25413,5.49465 -7.2298,10.98929 -12.43525,18.50827 -12.43525,18.50827 0,0 0.57838,6.07303 3.4703,10.12172 2.89192,4.04868 8.09737,10.12171 10.12171,11.56767 2.02434,1.44596 9.54333,5.78384 10.12172,7.51899 0.57838,1.73515 -10.7001,2.31353 -10.7001,2.31353 z"
       id="path1407" />
  </g>
  <g
     inkscape:groupmode="layer"
     id="layer4"
     inkscape:label="Layer 2">
    <path
       style="fill:#784421;stroke-width:0.264583"
       d="m 64.200584,124.93086 c 0,0 20.243427,-1.44595 24.00292,-1.44595 3.759494,0 35.281406,1.15676 42.511196,1.15676 7.2298,0 16.48393,-1.15676 32.67868,-0.86757 16.19474,0.28919 14.1704,7.22979 18.21908,0.28919 4.04869,-6.94061 -5.78384,-21.97858 -5.78384,-21.97858 0,0 -17.92989,-15.905549 -27.47322,-18.219084 -9.54333,-2.313535 -11.56767,-4.91626 -22.55696,-4.91626 -10.98929,0 -24.00292,-2.313535 -32.100291,2.313536 -8.097372,4.627067 -20.243427,13.302823 -24.292113,20.532618 -4.048686,7.2298 -5.205452,23.13534 -5.205452,23.13534 z"
       id="path1572" />
  </g>
</svg>
